<svg width="20" height="19" viewBox="0 0 20 19" fill="none" xmlns="http://www.w3.org/2000/svg">
<path d="M3.00002 18.3333C2.35835 18.3333 1.80905 18.1049 1.3521 17.6479C0.895159 17.191 0.666687 16.6417 0.666687 16V13.6667C0.666687 13.3361 0.778493 13.059 1.0021 12.8354C1.22571 12.6118 1.5028 12.5 1.83335 12.5C2.16391 12.5 2.44099 12.6118 2.6646 12.8354C2.88821 13.059 3.00002 13.3361 3.00002 13.6667V16H17V13.6667C17 13.3361 17.1118 13.059 17.3354 12.8354C17.559 12.6118 17.8361 12.5 18.1667 12.5C18.4972 12.5 18.7743 12.6118 18.9979 12.8354C19.2215 13.059 19.3334 13.3361 19.3334 13.6667V16C19.3334 16.6417 19.1049 17.191 18.6479 17.6479C18.191 18.1049 17.6417 18.3333 17 18.3333H3.00002ZM8.83335 4.15834L6.64585 6.34584C6.41252 6.57917 6.13544 6.69098 5.8146 6.68126C5.49377 6.67153 5.21669 6.55001 4.98335 6.31667C4.76946 6.08334 4.65766 5.81112 4.64794 5.50001C4.63822 5.1889 4.75002 4.91667 4.98335 4.68334L9.18335 0.483339C9.30002 0.366673 9.42641 0.284034 9.56252 0.235423C9.69863 0.186812 9.84447 0.162506 10 0.162506C10.1556 0.162506 10.3014 0.186812 10.4375 0.235423C10.5736 0.284034 10.7 0.366673 10.8167 0.483339L15.0167 4.68334C15.25 4.91667 15.3618 5.1889 15.3521 5.50001C15.3424 5.81112 15.2306 6.08334 15.0167 6.31667C14.7834 6.55001 14.5063 6.67153 14.1854 6.68126C13.8646 6.69098 13.5875 6.57917 13.3542 6.34584L11.1667 4.15834V12.5C11.1667 12.8306 11.0549 13.1076 10.8313 13.3313C10.6077 13.5549 10.3306 13.6667 10 13.6667C9.66947 13.6667 9.39238 13.5549 9.16877 13.3313C8.94516 13.1076 8.83335 12.8306 8.83335 12.5V4.15834Z" fill="#CDCECF"/>
</svg>
