<svg width="186" height="78" viewBox="0 0 186 78" fill="none" xmlns="http://www.w3.org/2000/svg">
<path d="M24.4645 19.4414H56.6207L48.2858 35.1079L24.4645 19.4414Z" fill="#0047DA"/>
<path d="M61.7914 19.4414L52.0931 37.6033L58.7816 42.0022L69.5089 21.8596C70.0571 20.8306 72.5102 19.4414 73.3677 19.4414H61.7914Z" fill="#0047DA"/>
<path d="M41.2372 58.0289H73.3934L49.5721 42.3624L41.2372 58.0289Z" fill="#0047DA"/>
<path d="M36.0407 58.0289H27.037L39.102 35.4424L45.7905 39.8413L36.0407 58.0289Z" fill="#0047DA"/>
<path d="M93.6223 31.0447C93.6223 31.237 93.589 31.4255 93.5225 31.6104C93.4559 31.7952 93.3672 31.9468 93.2563 32.0651L87.8549 39.1856H93.4559V41.293H84.6717V40.1506C84.6717 40.0249 84.7013 39.877 84.7604 39.7069C84.8196 39.5295 84.9083 39.3631 85.0266 39.2078L90.4835 32.0097H84.9934V29.9134H93.6223V31.0447ZM98.3906 24.8115V34.2501H98.9008C99.0857 34.2501 99.2299 34.2279 99.3334 34.1835C99.4443 34.1318 99.5552 34.0319 99.6661 33.8841L102.494 30.3903C102.613 30.2351 102.742 30.1168 102.883 30.0354C103.03 29.9541 103.219 29.9134 103.448 29.9134H105.955L102.417 34.1392C102.165 34.4719 101.892 34.727 101.596 34.9045C101.751 35.0154 101.888 35.1448 102.006 35.2926C102.132 35.4405 102.25 35.5995 102.361 35.7696L106.154 41.293H103.681C103.467 41.293 103.282 41.2597 103.127 41.1931C102.971 41.1192 102.842 40.9898 102.738 40.805L99.8325 36.4905C99.729 36.3204 99.6217 36.2095 99.5108 36.1578C99.3999 36.106 99.2336 36.0801 99.0117 36.0801H98.3906V41.293H95.6511V24.8115H98.3906ZM118.557 37.5109C118.719 37.5109 118.863 37.5737 118.989 37.6994L120.165 38.9749C119.514 39.7809 118.712 40.3983 117.758 40.8271C116.812 41.256 115.673 41.4704 114.342 41.4704C113.152 41.4704 112.079 41.2671 111.126 40.8604C110.179 40.4537 109.369 39.8881 108.697 39.1635C108.024 38.4388 107.506 37.5737 107.144 36.5681C106.789 35.5625 106.611 34.4645 106.611 33.274C106.611 32.0688 106.804 30.9671 107.188 29.9689C107.573 28.9633 108.112 28.0982 108.807 27.3735C109.51 26.6489 110.345 26.087 111.314 25.6877C112.283 25.281 113.355 25.0777 114.531 25.0777C115.699 25.0777 116.734 25.2699 117.636 25.6544C118.546 26.0389 119.318 26.5417 119.954 27.1628L118.956 28.5492C118.897 28.6379 118.819 28.7156 118.723 28.7821C118.634 28.8487 118.509 28.8819 118.346 28.8819C118.235 28.8819 118.12 28.8524 118.002 28.7932C117.884 28.7267 117.754 28.649 117.614 28.5603C117.473 28.4642 117.311 28.3607 117.126 28.2497C116.941 28.1388 116.727 28.039 116.483 27.9503C116.239 27.8542 115.954 27.7765 115.629 27.7174C115.311 27.6508 114.941 27.6176 114.519 27.6176C113.802 27.6176 113.144 27.7469 112.545 28.0057C111.954 28.2571 111.443 28.6268 111.015 29.1149C110.586 29.5955 110.253 30.187 110.016 30.8894C109.78 31.5845 109.662 32.3794 109.662 33.274C109.662 34.1761 109.787 34.9784 110.039 35.6808C110.297 36.3833 110.645 36.9748 111.081 37.4554C111.517 37.936 112.031 38.3057 112.623 38.5645C113.214 38.8159 113.85 38.9416 114.531 38.9416C114.937 38.9416 115.303 38.9195 115.629 38.8751C115.961 38.8307 116.264 38.7605 116.538 38.6644C116.819 38.5682 117.082 38.4462 117.326 38.2984C117.577 38.1431 117.825 37.9545 118.069 37.7327C118.143 37.6662 118.22 37.6144 118.302 37.5774C118.383 37.5331 118.468 37.5109 118.557 37.5109ZM124.317 31.8877C124.672 31.2074 125.093 30.675 125.581 30.2905C126.069 29.8986 126.646 29.7027 127.312 29.7027C127.837 29.7027 128.258 29.8173 128.576 30.0465L128.398 32.0984C128.362 32.2315 128.306 32.3276 128.232 32.3868C128.166 32.4385 128.073 32.4644 127.955 32.4644C127.844 32.4644 127.678 32.4459 127.456 32.4089C127.241 32.372 127.031 32.3535 126.824 32.3535C126.52 32.3535 126.25 32.3978 126.014 32.4866C125.777 32.5753 125.563 32.7047 125.371 32.8748C125.186 33.0374 125.019 33.2371 124.871 33.4737C124.731 33.7103 124.598 33.9802 124.472 34.2833V41.293H121.733V29.9134H123.341C123.622 29.9134 123.818 29.9652 123.929 30.0687C124.04 30.1648 124.114 30.3423 124.151 30.6011L124.317 31.8877ZM134.718 29.736C135.561 29.736 136.326 29.8728 137.014 30.1463C137.709 30.4199 138.301 30.8081 138.789 31.3109C139.284 31.8137 139.665 32.4274 139.931 33.152C140.197 33.8767 140.33 34.6863 140.33 35.581C140.33 36.4831 140.197 37.2964 139.931 38.0211C139.665 38.7457 139.284 39.3631 138.789 39.8733C138.301 40.3835 137.709 40.7754 137.014 41.049C136.326 41.3225 135.561 41.4593 134.718 41.4593C133.868 41.4593 133.095 41.3225 132.4 41.049C131.705 40.7754 131.11 40.3835 130.614 39.8733C130.126 39.3631 129.746 38.7457 129.472 38.0211C129.206 37.2964 129.073 36.4831 129.073 35.581C129.073 34.6863 129.206 33.8767 129.472 33.152C129.746 32.4274 130.126 31.8137 130.614 31.3109C131.11 30.8081 131.705 30.4199 132.4 30.1463C133.095 29.8728 133.868 29.736 134.718 29.736ZM134.718 39.352C135.665 39.352 136.363 39.0341 136.814 38.3982C137.273 37.7623 137.502 36.8306 137.502 35.6032C137.502 34.3758 137.273 33.4404 136.814 32.7971C136.363 32.1538 135.665 31.8322 134.718 31.8322C133.757 31.8322 133.043 32.1575 132.578 32.8082C132.119 33.4515 131.89 34.3832 131.89 35.6032C131.89 36.8232 132.119 37.7549 132.578 38.3982C133.043 39.0341 133.757 39.352 134.718 39.352ZM149.363 32.1317C149.289 32.25 149.212 32.335 149.13 32.3868C149.049 32.4311 148.946 32.4533 148.82 32.4533C148.687 32.4533 148.543 32.4163 148.387 32.3424C148.239 32.2685 148.066 32.1871 147.866 32.0984C147.666 32.0023 147.437 31.9172 147.178 31.8433C146.927 31.7693 146.628 31.7324 146.28 31.7324C145.74 31.7324 145.315 31.847 145.005 32.0762C144.701 32.3054 144.55 32.6049 144.55 32.9746C144.55 33.2186 144.627 33.4256 144.783 33.5957C144.945 33.7584 145.156 33.9025 145.415 34.0282C145.681 34.154 145.981 34.2686 146.313 34.3721C146.646 34.4682 146.982 34.5754 147.323 34.6937C147.67 34.812 148.01 34.9488 148.343 35.1041C148.676 35.252 148.972 35.4442 149.23 35.6808C149.496 35.9101 149.707 36.1873 149.863 36.5127C150.025 36.838 150.107 37.2299 150.107 37.6883C150.107 38.2355 150.007 38.742 149.807 39.2078C149.615 39.6663 149.326 40.0655 148.942 40.4057C148.557 40.7384 148.081 41.0009 147.511 41.1931C146.949 41.378 146.299 41.4704 145.559 41.4704C145.167 41.4704 144.783 41.4335 144.406 41.3595C144.036 41.293 143.677 41.1968 143.33 41.0711C142.99 40.9454 142.672 40.7976 142.376 40.6275C142.088 40.4574 141.832 40.2726 141.611 40.0729L142.243 39.0304C142.324 38.9047 142.42 38.8085 142.531 38.742C142.642 38.6755 142.783 38.6422 142.953 38.6422C143.123 38.6422 143.282 38.6902 143.43 38.7864C143.585 38.8825 143.762 38.986 143.962 39.0969C144.162 39.2078 144.395 39.3113 144.661 39.4075C144.934 39.5036 145.278 39.5517 145.692 39.5517C146.018 39.5517 146.295 39.5147 146.524 39.4407C146.761 39.3594 146.953 39.2559 147.101 39.1302C147.256 39.0045 147.367 38.8603 147.434 38.6976C147.507 38.5276 147.544 38.3538 147.544 38.1763C147.544 37.9102 147.463 37.692 147.3 37.522C147.145 37.3519 146.934 37.204 146.668 37.0783C146.409 36.9526 146.11 36.8417 145.77 36.7456C145.437 36.6421 145.093 36.5312 144.738 36.4129C144.391 36.2945 144.047 36.1578 143.707 36.0025C143.374 35.8398 143.075 35.6365 142.809 35.3925C142.55 35.1485 142.339 34.849 142.176 34.4941C142.021 34.1392 141.943 33.7103 141.943 33.2075C141.943 32.7417 142.036 32.298 142.221 31.8766C142.406 31.4551 142.675 31.0891 143.03 30.7785C143.393 30.4606 143.84 30.2092 144.372 30.0243C144.912 29.8321 145.533 29.736 146.236 29.736C147.019 29.736 147.733 29.8654 148.376 30.1242C149.02 30.383 149.556 30.7231 149.985 31.1445L149.363 32.1317ZM159.112 32.1317C159.038 32.25 158.96 32.335 158.879 32.3868C158.797 32.4311 158.694 32.4533 158.568 32.4533C158.435 32.4533 158.291 32.4163 158.135 32.3424C157.988 32.2685 157.814 32.1871 157.614 32.0984C157.415 32.0023 157.185 31.9172 156.927 31.8433C156.675 31.7693 156.376 31.7324 156.028 31.7324C155.488 31.7324 155.063 31.847 154.753 32.0762C154.45 32.3054 154.298 32.6049 154.298 32.9746C154.298 33.2186 154.376 33.4256 154.531 33.5957C154.694 33.7584 154.904 33.9025 155.163 34.0282C155.429 34.154 155.729 34.2686 156.061 34.3721C156.394 34.4682 156.731 34.5754 157.071 34.6937C157.418 34.812 157.758 34.9488 158.091 35.1041C158.424 35.252 158.72 35.4442 158.978 35.6808C159.245 35.9101 159.455 36.1873 159.611 36.5127C159.773 36.838 159.855 37.2299 159.855 37.6883C159.855 38.2355 159.755 38.742 159.555 39.2078C159.363 39.6663 159.075 40.0655 158.69 40.4057C158.306 40.7384 157.829 41.0009 157.259 41.1931C156.697 41.378 156.047 41.4704 155.307 41.4704C154.915 41.4704 154.531 41.4335 154.154 41.3595C153.784 41.293 153.425 41.1968 153.078 41.0711C152.738 40.9454 152.42 40.7976 152.124 40.6275C151.836 40.4574 151.581 40.2726 151.359 40.0729L151.991 39.0304C152.072 38.9047 152.168 38.8085 152.279 38.742C152.39 38.6755 152.531 38.6422 152.701 38.6422C152.871 38.6422 153.03 38.6902 153.178 38.7864C153.333 38.8825 153.51 38.986 153.71 39.0969C153.91 39.2078 154.143 39.3113 154.409 39.4075C154.682 39.5036 155.026 39.5517 155.44 39.5517C155.766 39.5517 156.043 39.5147 156.272 39.4407C156.509 39.3594 156.701 39.2559 156.849 39.1302C157.004 39.0045 157.115 38.8603 157.182 38.6976C157.256 38.5276 157.293 38.3538 157.293 38.1763C157.293 37.9102 157.211 37.692 157.049 37.522C156.893 37.3519 156.683 37.204 156.416 37.0783C156.158 36.9526 155.858 36.8417 155.518 36.7456C155.185 36.6421 154.841 36.5312 154.486 36.4129C154.139 36.2945 153.795 36.1578 153.455 36.0025C153.122 35.8398 152.823 35.6365 152.557 35.3925C152.298 35.1485 152.087 34.849 151.924 34.4941C151.769 34.1392 151.692 33.7103 151.692 33.2075C151.692 32.7417 151.784 32.298 151.969 31.8766C152.154 31.4551 152.424 31.0891 152.778 30.7785C153.141 30.4606 153.588 30.2092 154.12 30.0243C154.66 29.8321 155.281 29.736 155.984 29.736C156.768 29.736 157.481 29.8654 158.124 30.1242C158.768 30.383 159.304 30.7231 159.733 31.1445L159.112 32.1317Z" fill="white"/>
<path d="M94.0327 44.58V55.1758H93.3154C93.2021 55.1758 93.1059 55.1561 93.0271 55.1166C92.9531 55.0772 92.8792 55.0106 92.8052 54.917L86.6755 46.9313C86.6854 47.0546 86.6928 47.1753 86.6977 47.2937C86.7026 47.412 86.7051 47.5229 86.7051 47.6264V55.1758H85.4481V44.58H86.1875C86.2516 44.58 86.3058 44.5849 86.3502 44.5948C86.3945 44.5997 86.434 44.6121 86.4685 44.6318C86.503 44.6466 86.5375 44.6712 86.572 44.7057C86.6065 44.7353 86.6435 44.7747 86.6829 44.824L92.8126 52.8023C92.8028 52.6741 92.7929 52.5509 92.7831 52.4326C92.7781 52.3093 92.7757 52.1935 92.7757 52.085V44.58H94.0327ZM101.213 50.6136C101.213 50.308 101.169 50.0295 101.08 49.7781C100.996 49.5217 100.87 49.3024 100.703 49.12C100.54 48.9327 100.341 48.7897 100.104 48.6911C99.8673 48.5876 99.5987 48.5359 99.298 48.5359C98.667 48.5359 98.1667 48.7207 97.797 49.0904C97.4322 49.4552 97.2054 49.9629 97.1167 50.6136H101.213ZM102.278 54.1258C102.115 54.323 101.92 54.4955 101.694 54.6434C101.467 54.7864 101.223 54.9047 100.962 54.9983C100.705 55.092 100.439 55.161 100.163 55.2054C99.887 55.2547 99.6134 55.2793 99.3423 55.2793C98.8247 55.2793 98.3466 55.193 97.9079 55.0205C97.4741 54.843 97.097 54.5867 96.7766 54.2515C96.4611 53.9114 96.2146 53.4924 96.0372 52.9945C95.8597 52.4966 95.771 51.9248 95.771 51.2791C95.771 50.7566 95.8498 50.2686 96.0076 49.815C96.1703 49.3615 96.4019 48.9697 96.7026 48.6394C97.0033 48.3042 97.3706 48.0429 97.8044 47.8556C98.2381 47.6634 98.7262 47.5672 99.2684 47.5672C99.717 47.5672 100.131 47.6436 100.511 47.7965C100.895 47.9443 101.225 48.1612 101.501 48.4471C101.782 48.7281 102.002 49.0781 102.159 49.4971C102.317 49.9112 102.396 50.3844 102.396 50.9168C102.396 51.1238 102.374 51.2618 102.33 51.3308C102.285 51.3999 102.201 51.4344 102.078 51.4344H97.0723C97.0871 51.9076 97.1512 52.3192 97.2646 52.6692C97.3829 53.0192 97.5456 53.3125 97.7526 53.5491C97.9596 53.7808 98.2061 53.9558 98.492 54.0741C98.7779 54.1874 99.0983 54.2441 99.4532 54.2441C99.7835 54.2441 100.067 54.2072 100.304 54.1332C100.545 54.0543 100.752 53.9705 100.925 53.8818C101.097 53.7931 101.24 53.7117 101.354 53.6378C101.472 53.5589 101.573 53.5195 101.657 53.5195C101.765 53.5195 101.849 53.5614 101.908 53.6452L102.278 54.1258ZM106.255 55.2941C105.663 55.2941 105.207 55.129 104.887 54.7987C104.571 54.4684 104.413 53.9927 104.413 53.3716V48.7873H103.511C103.432 48.7873 103.366 48.7651 103.312 48.7207C103.257 48.6714 103.23 48.5975 103.23 48.4989V47.9739L104.458 47.8186L104.761 45.5043C104.776 45.4303 104.808 45.3712 104.857 45.3268C104.911 45.2775 104.98 45.2529 105.064 45.2529H105.73V47.8334H107.896V48.7873H105.73V53.2829C105.73 53.5984 105.806 53.8325 105.959 53.9853C106.112 54.1381 106.309 54.2145 106.55 54.2145C106.688 54.2145 106.807 54.1973 106.905 54.1628C107.009 54.1234 107.097 54.0815 107.171 54.0371C107.245 53.9927 107.307 53.9533 107.356 53.9188C107.411 53.8793 107.457 53.8596 107.497 53.8596C107.566 53.8596 107.627 53.9015 107.682 53.9853L108.066 54.6138C107.839 54.8258 107.566 54.9934 107.245 55.1166C106.925 55.2349 106.595 55.2941 106.255 55.2941ZM119.585 47.6855L117.159 55.1758H116.117C115.989 55.1758 115.9 55.092 115.851 54.9244L114.194 49.8446C114.155 49.7312 114.123 49.6179 114.098 49.5045C114.074 49.3862 114.049 49.2703 114.024 49.157C114 49.2703 113.975 49.3862 113.95 49.5045C113.926 49.6179 113.894 49.7337 113.854 49.852L112.168 54.9244C112.124 55.092 112.025 55.1758 111.873 55.1758H110.882L108.457 47.6855H109.492C109.595 47.6855 109.681 47.7127 109.75 47.7669C109.824 47.8211 109.874 47.8852 109.898 47.9591L111.333 52.7801C111.417 53.135 111.483 53.4702 111.532 53.7857C111.577 53.623 111.621 53.4579 111.666 53.2903C111.715 53.1227 111.767 52.9526 111.821 52.7801L113.403 47.9295C113.428 47.8556 113.47 47.794 113.529 47.7447C113.593 47.6954 113.669 47.6708 113.758 47.6708H114.335C114.433 47.6708 114.515 47.6954 114.579 47.7447C114.643 47.794 114.687 47.8556 114.712 47.9295L116.257 52.7801C116.312 52.9526 116.361 53.1227 116.405 53.2903C116.45 53.4579 116.491 53.623 116.531 53.7857C116.556 53.623 116.585 53.4603 116.62 53.2977C116.659 53.1301 116.701 52.9575 116.745 52.7801L118.209 47.9591C118.234 47.8803 118.281 47.8162 118.35 47.7669C118.419 47.7127 118.5 47.6855 118.594 47.6855H119.585ZM123.922 47.5672C124.469 47.5672 124.962 47.6584 125.401 47.8408C125.84 48.0232 126.215 48.282 126.525 48.6172C126.836 48.9524 127.072 49.3591 127.235 49.8372C127.402 50.3105 127.486 50.8404 127.486 51.427C127.486 52.0185 127.402 52.5509 127.235 53.0241C127.072 53.4973 126.836 53.9015 126.525 54.2367C126.215 54.5719 125.84 54.8307 125.401 55.0131C124.962 55.1906 124.469 55.2793 123.922 55.2793C123.37 55.2793 122.872 55.1906 122.429 55.0131C121.99 54.8307 121.615 54.5719 121.305 54.2367C120.994 53.9015 120.755 53.4973 120.588 53.0241C120.425 52.5509 120.344 52.0185 120.344 51.427C120.344 50.8404 120.425 50.3105 120.588 49.8372C120.755 49.3591 120.994 48.9524 121.305 48.6172C121.615 48.282 121.99 48.0232 122.429 47.8408C122.872 47.6584 123.37 47.5672 123.922 47.5672ZM123.922 54.2515C124.662 54.2515 125.214 54.005 125.579 53.5121C125.943 53.0142 126.126 52.3217 126.126 51.4344C126.126 50.5421 125.943 49.8471 125.579 49.3492C125.214 48.8513 124.662 48.6024 123.922 48.6024C123.548 48.6024 123.22 48.6665 122.939 48.7947C122.663 48.9228 122.431 49.1077 122.244 49.3492C122.061 49.5908 121.923 49.889 121.83 50.2439C121.741 50.5939 121.697 50.9907 121.697 51.4344C121.697 52.3217 121.879 53.0142 122.244 53.5121C122.614 54.005 123.173 54.2515 123.922 54.2515ZM130.405 49.1865C130.642 48.6739 130.933 48.2746 131.278 47.9887C131.623 47.6979 132.044 47.5524 132.542 47.5524C132.7 47.5524 132.85 47.5697 132.993 47.6042C133.141 47.6387 133.272 47.6929 133.385 47.7669L133.289 48.7503C133.259 48.8735 133.185 48.9351 133.067 48.9351C132.998 48.9351 132.897 48.9204 132.764 48.8908C132.631 48.8612 132.481 48.8464 132.313 48.8464C132.076 48.8464 131.864 48.8809 131.677 48.9499C131.495 49.0189 131.33 49.1225 131.182 49.2605C131.039 49.3936 130.908 49.5612 130.79 49.7633C130.676 49.9605 130.573 50.1872 130.479 50.4435V55.1758H129.156V47.6855H129.91C130.053 47.6855 130.151 47.7127 130.206 47.7669C130.26 47.8211 130.297 47.9148 130.317 48.0479L130.405 49.1865ZM135.866 44.2842V50.6949H136.206C136.305 50.6949 136.386 50.6826 136.45 50.658C136.519 50.6284 136.591 50.5717 136.664 50.4879L139.031 47.9517C139.1 47.8679 139.171 47.8038 139.245 47.7595C139.324 47.7102 139.427 47.6855 139.556 47.6855H140.746L137.988 50.621C137.855 50.7886 137.712 50.9192 137.559 51.0129C137.648 51.072 137.727 51.1411 137.796 51.2199C137.87 51.2939 137.939 51.3801 138.003 51.4787L140.931 55.1758H139.755C139.642 55.1758 139.543 55.1585 139.459 55.124C139.381 55.0846 139.312 55.0156 139.252 54.917L136.79 51.8484C136.716 51.7449 136.642 51.6784 136.568 51.6488C136.499 51.6143 136.391 51.597 136.243 51.597H135.866V55.1758H134.542V44.2842H135.866Z" fill="white"/>
</svg>
